<svg xmlns="http://www.w3.org/2000/svg" viewBox="0 0 64 64" role="img" aria-label="Hugging">
  <path d="M48.98 36.31 L47.77 37.21 L46.56 38.11 L45.34 39.02 L44.13 39.92 L42.92 40.82 L41.7 41.72 L40.49 42.62 L39.28 43.52 L38.06 44.42 L36.85 45.33 L35.64 46.23 L34.43 47.13 L33.21 48.03 L32 48.93 L32 47.78 L32 46.64 L32 45.49 L32 44.34 L32 43.19 L32 42.04 L32 40.9 L32 39.75 L32 38.6 L32 37.45 L32 36.31 L32 35.16 L32 34.01 L32 32.86 L33.21 31.96 L34.43 31.06 L35.64 30.16 L36.85 29.26 L38.06 28.36 L39.28 27.45 L40.49 26.55 L41.7 25.65 L42.92 24.75 L44.13 23.85 L45.34 22.95 L46.56 22.05 L47.77 21.14 L48.98 20.24 L48.98 21.39 L48.98 22.54 L48.98 23.69 L48.98 24.83 L48.98 25.98 L48.98 27.13 L48.98 28.28 L48.98 29.43 L48.98 30.57 L48.98 31.72 L48.98 32.87 L48.98 34.02 L48.98 35.16 Z" fill="#126a95"/><path d="M15.02 36.31 L15.02 35.16 L15.02 34.02 L15.02 32.87 L15.02 31.72 L15.02 30.57 L15.02 29.43 L15.02 28.28 L15.02 27.13 L15.02 25.98 L15.02 24.83 L15.02 23.69 L15.02 22.54 L15.02 21.39 L15.02 20.24 L16.23 21.14 L17.44 22.05 L18.66 22.95 L19.87 23.85 L21.08 24.75 L22.3 25.65 L23.51 26.55 L24.72 27.45 L25.94 28.36 L27.15 29.26 L28.36 30.16 L29.57 31.06 L30.79 31.96 L32 32.86 L32 34.01 L32 35.16 L32 36.31 L32 37.45 L32 38.6 L32 39.75 L32 40.9 L32 42.04 L32 43.19 L32 44.34 L32 45.49 L32 46.64 L32 47.78 L32 48.93 L30.79 48.03 L29.57 47.13 L28.36 46.23 L27.15 45.33 L25.94 44.42 L24.72 43.52 L23.51 42.62 L22.3 41.72 L21.08 40.82 L19.87 39.92 L18.66 39.02 L17.44 38.11 L16.23 37.21 Z" fill="#1ba1e2"/><path d="M32 7.62 L33.21 8.52 L34.43 9.43 L35.64 10.33 L36.85 11.23 L38.06 12.13 L39.28 13.03 L40.49 13.93 L41.7 14.83 L42.92 15.74 L44.13 16.64 L45.34 17.54 L46.56 18.44 L47.77 19.34 L48.98 20.24 L47.77 21.14 L46.56 22.05 L45.34 22.95 L44.13 23.85 L42.92 24.75 L41.7 25.65 L40.49 26.55 L39.28 27.45 L38.06 28.36 L36.85 29.26 L35.64 30.16 L34.43 31.06 L33.21 31.96 L32 32.86 L30.79 31.96 L29.57 31.06 L28.36 30.16 L27.15 29.26 L25.94 28.36 L24.72 27.45 L23.51 26.55 L22.3 25.65 L21.08 24.75 L19.87 23.85 L18.66 22.95 L17.44 22.05 L16.23 21.14 L15.02 20.24 L16.23 19.34 L17.44 18.44 L18.66 17.54 L19.87 16.64 L21.08 15.74 L22.3 14.83 L23.51 13.93 L24.72 13.03 L25.94 12.13 L27.15 11.23 L28.36 10.33 L29.57 9.43 L30.79 8.52 Z" fill="#56b9ea"/><path d="M5 43.76 L5 42.61 L5 41.46 L5 40.31 L5 39.17 L5 38.02 L5 36.87 L5 35.72 L5 34.57 L5 33.43 L5 32.28 L5 31.13 L5 29.98 L5 28.84 L5 27.69 L6.21 28.59 L7.43 29.49 L8.64 30.39 L9.85 31.29 L11.06 32.2 L12.28 33.1 L13.49 34 L14.7 34.9 L15.92 35.8 L17.13 36.7 L18.34 37.6 L19.56 38.5 L20.77 39.41 L21.98 40.31 L21.98 41.46 L21.98 42.6 L21.98 43.75 L21.98 44.9 L21.98 46.05 L21.98 47.19 L21.98 48.34 L21.98 49.49 L21.98 50.64 L21.98 51.79 L21.98 52.93 L21.98 54.08 L21.98 55.23 L21.98 56.38 L20.77 55.48 L19.56 54.57 L18.34 53.67 L17.13 52.77 L15.92 51.87 L14.7 50.97 L13.49 50.07 L12.28 49.17 L11.06 48.26 L9.85 47.36 L8.64 46.46 L7.43 45.56 L6.21 44.66 Z" fill="#a8dd00"/><path d="M59 43.76 L57.79 44.66 L56.57 45.56 L55.36 46.46 L54.15 47.36 L52.94 48.26 L51.72 49.17 L50.51 50.07 L49.3 50.97 L48.08 51.87 L46.87 52.77 L45.66 53.67 L44.44 54.57 L43.23 55.48 L42.02 56.38 L42.02 55.23 L42.02 54.08 L42.02 52.93 L42.02 51.79 L42.02 50.64 L42.02 49.49 L42.02 48.34 L42.02 47.19 L42.02 46.05 L42.02 44.9 L42.02 43.75 L42.02 42.6 L42.02 41.46 L42.02 40.31 L43.23 39.41 L44.44 38.5 L45.66 37.6 L46.87 36.7 L48.08 35.8 L49.3 34.9 L50.51 34 L51.72 33.1 L52.94 32.2 L54.15 31.29 L55.36 30.39 L56.57 29.49 L57.79 28.59 L59 27.69 L59 28.84 L59 29.98 L59 31.13 L59 32.28 L59 33.43 L59 34.57 L59 35.72 L59 36.87 L59 38.02 L59 39.17 L59 40.31 L59 41.46 L59 42.61 Z" fill="#6f9200"/><path d="M30.47 50.07 L29.87 50.52 L29.26 50.97 L28.65 51.42 L28.05 51.87 L27.44 52.32 L26.83 52.77 L26.23 53.22 L25.62 53.67 L25.01 54.12 L24.41 54.57 L23.8 55.02 L23.19 55.48 L22.59 55.93 L21.98 56.38 L21.98 55.23 L21.98 54.08 L21.98 52.93 L21.98 51.79 L21.98 50.64 L21.98 49.49 L21.98 48.34 L21.98 47.19 L21.98 46.05 L21.98 44.9 L21.98 43.75 L21.98 42.6 L21.98 41.46 L21.98 40.31 L22.59 39.86 L23.19 39.41 L23.8 38.96 L24.41 38.5 L25.01 38.05 L25.62 37.6 L26.23 37.15 L26.83 36.7 L27.44 36.25 L28.05 35.8 L28.65 35.35 L29.26 34.9 L29.87 34.45 L30.47 34 L30.47 35.15 L30.47 36.29 L30.47 37.44 L30.47 38.59 L30.47 39.74 L30.47 40.88 L30.47 42.03 L30.47 43.18 L30.47 44.33 L30.47 45.48 L30.47 46.62 L30.47 47.77 L30.47 48.92 Z" fill="#6f9200"/><path d="M33.53 50.07 L33.53 48.92 L33.53 47.77 L33.53 46.62 L33.53 45.48 L33.53 44.33 L33.53 43.18 L33.53 42.03 L33.53 40.88 L33.53 39.74 L33.53 38.59 L33.53 37.44 L33.53 36.29 L33.53 35.15 L33.53 34 L34.13 34.45 L34.74 34.9 L35.35 35.35 L35.95 35.8 L36.56 36.25 L37.17 36.7 L37.77 37.15 L38.38 37.6 L38.99 38.05 L39.59 38.5 L40.2 38.96 L40.81 39.41 L41.41 39.86 L42.02 40.31 L42.02 41.46 L42.02 42.6 L42.02 43.75 L42.02 44.9 L42.02 46.05 L42.02 47.19 L42.02 48.34 L42.02 49.49 L42.02 50.64 L42.02 51.79 L42.02 52.93 L42.02 54.08 L42.02 55.23 L42.02 56.38 L41.41 55.93 L40.81 55.48 L40.2 55.02 L39.59 54.57 L38.99 54.12 L38.38 53.67 L37.77 53.22 L37.17 52.77 L36.56 52.32 L35.95 51.87 L35.35 51.42 L34.74 50.97 L34.13 50.52 Z" fill="#a8dd00"/><path d="M13.49 21.38 L14.7 22.28 L15.92 23.18 L17.13 24.08 L18.34 24.98 L19.56 25.89 L20.77 26.79 L21.98 27.69 L23.19 28.59 L24.41 29.49 L25.62 30.39 L26.83 31.29 L28.05 32.2 L29.26 33.1 L30.47 34 L29.87 34.45 L29.26 34.9 L28.65 35.35 L28.05 35.8 L27.44 36.25 L26.83 36.7 L26.23 37.15 L25.62 37.6 L25.01 38.05 L24.41 38.5 L23.8 38.96 L23.19 39.41 L22.59 39.86 L21.98 40.31 L20.77 39.41 L19.56 38.5 L18.34 37.6 L17.13 36.7 L15.92 35.8 L14.7 34.9 L13.49 34 L12.28 33.1 L11.06 32.2 L9.85 31.29 L8.64 30.39 L7.43 29.49 L6.21 28.59 L5 27.69 L5.61 27.24 L6.21 26.79 L6.82 26.34 L7.43 25.89 L8.03 25.43 L8.64 24.98 L9.25 24.53 L9.85 24.08 L10.46 23.63 L11.06 23.18 L11.67 22.73 L12.28 22.28 L12.88 21.83 Z" fill="#bfe642"/><path d="M50.51 21.38 L51.12 21.83 L51.72 22.28 L52.33 22.73 L52.94 23.18 L53.54 23.63 L54.15 24.08 L54.75 24.53 L55.36 24.98 L55.97 25.43 L56.57 25.89 L57.18 26.34 L57.79 26.79 L58.39 27.24 L59 27.69 L57.79 28.59 L56.57 29.49 L55.36 30.39 L54.15 31.29 L52.94 32.2 L51.72 33.1 L50.51 34 L49.3 34.9 L48.08 35.8 L46.87 36.7 L45.66 37.6 L44.44 38.5 L43.23 39.41 L42.02 40.31 L41.41 39.86 L40.81 39.41 L40.2 38.96 L39.59 38.5 L38.99 38.05 L38.38 37.6 L37.77 37.15 L37.17 36.7 L36.56 36.25 L35.95 35.8 L35.35 35.35 L34.74 34.9 L34.13 34.45 L33.53 34 L34.74 33.1 L35.95 32.2 L37.17 31.29 L38.38 30.39 L39.59 29.49 L40.81 28.59 L42.02 27.69 L43.23 26.79 L44.44 25.89 L45.66 24.98 L46.87 24.08 L48.08 23.18 L49.3 22.28 Z" fill="#bfe642"/>
</svg>
