<svg xmlns="http://www.w3.org/2000/svg" viewBox="0 0 64 64" role="img" aria-label="Bold cut">
  <defs><mask id="bold-m"><rect width="64" height="64" fill="#fff"/><g transform="translate(32 38) scale(0.11 -0.08) translate(-283 -277)"><path d="M302 396 464 714H603L366 278V0H237V273L0 714H141Z" fill="#000"/></g><path d="M41.81 7.21 L32 2.43 L22.19 7.21 L22.19 17.71 L32 22.5 L41.81 17.71 Z" fill="#000" stroke="#000" stroke-width="3.2" stroke-linejoin="round"/></mask></defs>
  <g transform="translate(2.42 1.76) scale(0.92)"><g mask="url(#bold-m)"><path d="M32.9 37.56 L53.75 27.39 Q55.37 26.6 53.75 25.81 L33.62 15.99 Q32 15.2 32 17 L32 37 Q32 38 32.9 37.56 Z" fill="#a8dd00"/><path d="M32 37 L32 17 Q32 15.2 30.38 15.99 L10.25 25.81 Q8.63 26.6 10.25 27.39 L31.1 37.56 Q32 38 32 37 Z" fill="#7ca400"/><path d="M32.9 37.56 L53.75 27.39 Q55.37 26.6 55.37 28.4 L55.37 49.8 Q55.37 51.6 53.81 50.7 L32.86 38.5 Q32 38 32.9 37.56 Z" fill="#a8dd00"/><path d="M32.86 38.5 L53.81 50.7 Q55.37 51.6 53.75 52.39 L33.62 62.21 Q32 63 32 61.2 L32 39 Q32 38 32.86 38.5 Z" fill="#7ca400"/><path d="M31.1 37.56 L10.25 27.39 Q8.63 26.6 8.63 28.4 L8.63 49.8 Q8.63 51.6 10.19 50.7 L31.14 38.5 Q32 38 31.1 37.56 Z" fill="#a8dd00"/><path d="M31.14 38.5 L10.19 50.7 Q8.63 51.6 10.25 52.39 L30.38 62.21 Q32 63 32 61.2 L32 39 Q32 38 31.14 38.5 Z" fill="#7ca400"/></g><path d="M32.9 11.56 L40.2 8 Q41.81 7.21 40.2 6.42 L33.62 3.22 Q32 2.43 32 4.23 L32 11 Q32 12 32.9 11.56 Z" fill="#82cbef"/><path d="M32 11 L32 4.23 Q32 2.43 30.38 3.22 L23.8 6.42 Q22.19 7.21 23.8 8 L31.1 11.56 Q32 12 32 11 Z" fill="#1ba1e2"/><path d="M32.9 11.56 L40.2 8 Q41.81 7.21 41.81 9.01 L41.81 15.91 Q41.81 17.71 40.26 16.81 L32.86 12.5 Q32 12 32.9 11.56 Z" fill="#1ba1e2"/><path d="M32.86 12.5 L40.26 16.81 Q41.81 17.71 40.2 18.5 L33.62 21.71 Q32 22.5 32 20.7 L32 13 Q32 12 32.86 12.5 Z" fill="#13719e"/><path d="M31.1 11.56 L23.8 8 Q22.19 7.21 22.19 9.01 L22.19 15.91 Q22.19 17.71 23.74 16.81 L31.14 12.5 Q32 12 31.1 11.56 Z" fill="#1ba1e2"/><path d="M31.14 12.5 L23.74 16.81 Q22.19 17.71 23.8 18.5 L30.38 21.71 Q32 22.5 32 20.7 L32 13 Q32 12 31.14 12.5 Z" fill="#13719e"/></g>
</svg>
