<svg xmlns="http://www.w3.org/2000/svg" viewBox="0 0 64 64" role="img" aria-label="Perch">
  <defs><mask id="perch-m"><rect width="64" height="64" fill="#fff"/><g transform="translate(32 38) scale(0.09 -0.08) translate(-283 -277)"><path d="M283 363 469 714H566L328 277V0H238V273L0 714H98Z" fill="#000"/></g><path d="M43.68 1.3 L32 -4.4 L20.32 1.3 L20.32 13.8 L32 19.5 L43.68 13.8 Z" fill="#000" stroke="#000" stroke-width="3.2" stroke-linejoin="round"/></mask></defs>
  <g transform="translate(5.41 7.65) scale(0.83)"><g mask="url(#perch-m)"><path d="M32.9 37.56 L53.75 27.39 Q55.37 26.6 53.75 25.81 L33.62 15.99 Q32 15.2 32 17 L32 37 Q32 38 32.9 37.56 Z" fill="#a8dd00"/><path d="M32 37 L32 17 Q32 15.2 30.38 15.99 L10.25 25.81 Q8.63 26.6 10.25 27.39 L31.1 37.56 Q32 38 32 37 Z" fill="#7ca400"/><path d="M32.9 37.56 L53.75 27.39 Q55.37 26.6 55.37 28.4 L55.37 49.8 Q55.37 51.6 53.81 50.7 L32.86 38.5 Q32 38 32.9 37.56 Z" fill="#a8dd00"/><path d="M32.86 38.5 L53.81 50.7 Q55.37 51.6 53.75 52.39 L33.62 62.21 Q32 63 32 61.2 L32 39 Q32 38 32.86 38.5 Z" fill="#7ca400"/><path d="M31.1 37.56 L10.25 27.39 Q8.63 26.6 8.63 28.4 L8.63 49.8 Q8.63 51.6 10.19 50.7 L31.14 38.5 Q32 38 31.1 37.56 Z" fill="#a8dd00"/><path d="M31.14 38.5 L10.19 50.7 Q8.63 51.6 10.25 52.39 L30.38 62.21 Q32 63 32 61.2 L32 39 Q32 38 31.14 38.5 Z" fill="#7ca400"/></g><path d="M32.9 6.56 L42.07 2.09 Q43.68 1.3 42.07 0.51 L33.62 -3.61 Q32 -4.4 32 -2.6 L32 6 Q32 7 32.9 6.56 Z" fill="#82cbef"/><path d="M32 6 L32 -2.6 Q32 -4.4 30.38 -3.61 L21.93 0.51 Q20.32 1.3 21.93 2.09 L31.1 6.56 Q32 7 32 6 Z" fill="#1ba1e2"/><path d="M32.9 6.56 L42.07 2.09 Q43.68 1.3 43.68 3.1 L43.68 12 Q43.68 13.8 42.13 12.9 L32.86 7.5 Q32 7 32.9 6.56 Z" fill="#1ba1e2"/><path d="M32.86 7.5 L42.13 12.9 Q43.68 13.8 42.07 14.59 L33.62 18.71 Q32 19.5 32 17.7 L32 8 Q32 7 32.86 7.5 Z" fill="#13719e"/><path d="M31.1 6.56 L21.93 2.09 Q20.32 1.3 20.32 3.1 L20.32 12 Q20.32 13.8 21.87 12.9 L31.14 7.5 Q32 7 31.1 6.56 Z" fill="#1ba1e2"/><path d="M31.14 7.5 L21.87 12.9 Q20.32 13.8 21.93 14.59 L30.38 18.71 Q32 19.5 32 17.7 L32 8 Q32 7 31.14 7.5 Z" fill="#13719e"/></g>
</svg>
